<svg width="30" height="31" viewBox="0 0 30 31" fill="none" xmlns="http://www.w3.org/2000/svg">
<path d="M23.01 5.22095C22.654 5.22095 22.306 5.32715 22.01 5.52612C21.714 5.72508 21.4833 6.00788 21.347 6.33875C21.2108 6.66962 21.1751 7.03369 21.2446 7.38494C21.314 7.73619 21.4855 8.05883 21.7372 8.31207C21.9889 8.5653 22.3097 8.73776 22.6588 8.80763C23.008 8.8775 23.3699 8.84164 23.6988 8.70459C24.0277 8.56754 24.3089 8.33545 24.5066 8.03768C24.7044 7.7399 24.81 7.38982 24.81 7.03169C24.81 6.55145 24.6204 6.09088 24.2828 5.7513C23.9452 5.41172 23.4874 5.22095 23.01 5.22095V5.22095ZM29.91 8.8726C29.8808 7.62062 29.6477 6.38194 29.22 5.20586C28.8386 4.1996 28.245 3.28841 27.48 2.53503C26.7372 1.76158 25.8293 1.16819 24.825 0.799741C23.659 0.356354 22.4263 0.116506 21.18 0.0905366C19.59 -8.43189e-08 19.08 0 15 0C10.92 0 10.41 -8.43189e-08 8.82 0.0905366C7.57373 0.116506 6.34101 0.356354 5.175 0.799741C4.17251 1.17192 3.2654 1.7648 2.52 2.53503C1.75114 3.28222 1.16126 4.19553 0.795 5.20586C0.354241 6.37883 0.115815 7.6189 0.0899999 8.8726C-8.3819e-08 10.4721 0 10.9851 0 15.0895C0 19.1938 -8.3819e-08 19.7068 0.0899999 21.3063C0.115815 22.56 0.354241 23.8001 0.795 24.973C1.16126 25.9834 1.75114 26.8967 2.52 27.6439C3.2654 28.4141 4.17251 29.007 5.175 29.3792C6.34101 29.8226 7.57373 30.0624 8.82 30.0884C10.41 30.1789 10.92 30.1789 15 30.1789C19.08 30.1789 19.59 30.1789 21.18 30.0884C22.4263 30.0624 23.659 29.8226 24.825 29.3792C25.8293 29.0107 26.7372 28.4173 27.48 27.6439C28.2484 26.8933 28.8425 25.9813 29.22 24.973C29.6477 23.797 29.8808 22.5583 29.91 21.3063C29.91 19.7068 30 19.1938 30 15.0895C30 10.9851 30 10.4721 29.91 8.8726V8.8726ZM27.21 21.1252C27.1991 22.0831 27.0266 23.0321 26.7 23.9319C26.4605 24.5886 26.0758 25.1819 25.575 25.6672C25.0885 26.1659 24.4998 26.5521 23.85 26.7989C22.9556 27.1274 22.0122 27.3009 21.06 27.3119C19.56 27.3874 19.005 27.4024 15.06 27.4024C11.115 27.4024 10.56 27.4025 9.06 27.3119C8.07134 27.3305 7.08689 27.1774 6.15 26.8592C5.52867 26.5998 4.96703 26.2146 4.5 25.7275C4.00213 25.2428 3.62226 24.6489 3.39 23.9922C3.02378 23.0796 2.82067 22.109 2.79 21.1252C2.79 19.6163 2.7 19.058 2.7 15.0895C2.7 11.1209 2.7 10.5626 2.79 9.05367C2.79672 8.07445 2.97443 7.10403 3.315 6.18668C3.57907 5.54977 3.9844 4.98202 4.5 4.52684C4.95572 4.00801 5.51893 3.59596 6.15 3.31968C7.06433 2.98778 8.028 2.8143 9 2.80664C10.5 2.80664 11.055 2.7161 15 2.7161C18.945 2.7161 19.5 2.7161 21 2.80664C21.9522 2.81762 22.8956 2.9911 23.79 3.31968C24.4716 3.57417 25.0834 3.98791 25.575 4.52684C26.0666 4.99035 26.4506 5.55704 26.7 6.18668C27.0334 7.10552 27.2059 8.07554 27.21 9.05367C27.285 10.5626 27.3 11.1209 27.3 15.0895C27.3 19.058 27.285 19.6163 27.21 21.1252ZM15 7.34856C13.4787 7.35155 11.9924 7.80808 10.729 8.66047C9.46552 9.51286 8.48157 10.7229 7.90145 12.1376C7.32133 13.5523 7.17109 15.1083 7.46969 16.6089C7.7683 18.1094 8.50235 19.4873 9.57911 20.5684C10.6559 21.6495 12.027 22.3852 13.5193 22.6827C15.0116 22.9802 16.558 22.826 17.9632 22.2396C19.3684 21.6533 20.5693 20.6611 21.4142 19.3885C22.2591 18.1158 22.71 16.6198 22.71 15.0895C22.712 14.0711 22.5138 13.0623 22.1269 12.1213C21.7399 11.1802 21.1718 10.3254 20.4553 9.60602C19.7388 8.88662 18.8879 8.31682 17.9517 7.9294C17.0155 7.54198 16.0123 7.34458 15 7.34856V7.34856ZM15 20.1142C14.0121 20.1142 13.0464 19.8195 12.2249 19.2674C11.4035 18.7153 10.7633 17.9305 10.3852 17.0124C10.0072 16.0942 9.90824 15.0839 10.101 14.1092C10.2937 13.1345 10.7694 12.2391 11.468 11.5364C12.1666 10.8337 13.0566 10.3551 14.0255 10.1612C14.9945 9.96733 15.9988 10.0668 16.9115 10.4472C17.8242 10.8275 18.6043 11.4715 19.1532 12.2978C19.702 13.1242 19.995 14.0956 19.995 15.0895C19.995 15.7493 19.8658 16.4027 19.6148 17.0124C19.3638 17.622 18.9958 18.1759 18.532 18.6425C18.0682 19.1091 17.5175 19.4792 16.9115 19.7318C16.3055 19.9843 15.656 20.1142 15 20.1142V20.1142Z" fill="#8556E9"/>
</svg>
