<svg width="30" height="30" viewBox="0 0 30 30" fill="none" xmlns="http://www.w3.org/2000/svg">
<path d="M21.8727 18.015C21.573 17.8652 19.6255 16.9663 19.3258 16.8165C19.0262 16.6667 18.7266 16.6667 18.427 16.9663C18.1273 17.2659 17.5281 18.1648 17.2285 18.4644C17.0787 18.764 16.779 18.764 16.4794 18.6142C15.4307 18.1648 14.382 17.5655 13.4831 16.8165C12.7341 16.0674 11.985 15.1685 11.3858 14.2697C11.236 13.97 11.3858 13.6704 11.5356 13.5206C11.6854 13.3708 11.8352 13.0712 12.1348 12.9213C12.2846 12.7715 12.4345 12.4719 12.4345 12.3221C12.5843 12.1723 12.5843 11.8727 12.4345 11.7228C12.2846 11.573 11.5356 9.77528 11.236 9.02622C11.0861 7.97753 10.7865 7.97753 10.4869 7.97753H9.73783C9.4382 7.97753 8.98876 8.27715 8.83895 8.42697C7.94007 9.32584 7.49064 10.3745 7.49064 11.573C7.64045 12.9213 8.08989 14.2697 8.98876 15.4682C10.6367 17.8652 12.7341 19.8127 15.2809 21.0112C16.03 21.3109 16.6292 21.6105 17.3783 21.7603C18.1273 22.0599 18.8764 22.0599 19.7753 21.9101C20.824 21.7603 21.7228 21.0112 22.3221 20.1124C22.6217 19.5131 22.6217 18.9139 22.4719 18.3146L21.8727 18.015M25.618 4.38202C19.7753 -1.46067 10.3371 -1.46067 4.49438 4.38202C-0.299626 9.17603 -1.1985 16.5169 2.09738 22.3595L0 30L7.94007 27.9026C10.1873 29.1011 12.5843 29.7004 14.9813 29.7004C23.221 29.7004 29.8127 23.1086 29.8127 14.8689C29.9625 10.9738 28.3146 7.22846 25.618 4.38202M21.573 25.3558C19.6255 26.5543 17.3783 27.3034 14.9813 27.3034C12.7341 27.3034 10.6367 26.7041 8.68914 25.6554L8.2397 25.3558L3.59551 26.5543L4.79401 22.0599L4.49438 21.6105C0.898876 15.618 2.69663 8.12734 8.53932 4.38202C14.382 0.636704 21.8727 2.58427 25.4682 8.27715C29.0637 14.1199 27.4157 21.7603 21.573 25.3558Z" fill="#2DB9A8"/>
</svg>
